{"title":"Yes - The Yes Album (1971) [FLAC] (JVC Japan)","uid":12523810,"size":269627249,"categoryP":"audio","categoryS":"flac","magnet":"?xt=urn:btih:796d9b0ed708d7d415cf8df06757dd15534746f6&amp;dn=Yes+-+The+Yes+Album+%281971%29+%5BFLAC%5D+%28JVC+Japan%29&amp;tr=udp%3A%2F%2Ftracker.leechers-paradise.org%3A6969&amp;tr=udp%3A%2F%2Fzer0day.ch%3A1337&amp;tr=udp%3A%2F%2Fopen.demonii.com%3A1337&amp;tr=udp%3A%2F%2Ftracker.coppersurfer.tk%3A6969&amp;tr=udp%3A%2F%2Fexodus.desync.com%3A6969","seeders":1,"leechers":0,"uploader":"*Wizard*","files":15,"time":1443976171,"description":"--------------------------------------\r\nYes - The Yes Album\r\n\r\nEAC (tracks + cue)\r\n\r\nAtlantic SD 19131-2 (JVC Japan) [1987]\r\n\r\nFull scans included\r\n\r\n--------------------------------------\r\n\r\nEAC extraction logfile from 19. September 2015, 13:35 for CD\r\nYes / The Yes Album\r\n\r\nUsed drive  : TSSTcorpCDDVDW SH-224BB   Adapter: 0  ID: 1\r\nRead mode   : Secure with NO C2, accurate stream, disable cache\r\nRead offset correction : 6\r\nOverread into Lead-In and Lead-Out : No\r\n\r\nUsed output format : C:Program Files (x86)EACFLACflac.exe   (User Defined Encoder)\r\n                     32 kBit/s\r\n                     Additional command line options : -8 -V -T &quot;artist=%a&quot; -T &quot;title=%t&quot; -T &quot;album=%g&quot; -T &quot;date=%y&quot; -T &quot;tracknumber=%n&quot; -T &quot;genre=%m&quot; -T &quot;comment=EAC v0.95pb5&quot; %s\r\n\r\nOther options      : \r\n    Fill up missing offset samples with silence : Yes\r\n    Delete leading and trailing silent blocks : No\r\n    Native Win32 interface for Win NT &amp; 2000\r\n\r\n\r\nTrack  1\r\n     Filename E:-Temp-1 - Yours Is No Disgrace.wav\r\n\r\n     Pre-gap length  0:00:02.49\r\n\r\n     Peak level 78.4 %\r\n     Track quality 99.9 %\r\n     Test CRC B485EBD4\r\n     Copy CRC B485EBD4\r\n     Copy OK\r\n\r\nTrack  2\r\n     Filename E:-Temp-2 - The Clap.wav\r\n\r\n     Peak level 55.3 %\r\n     Track quality 100.0 %\r\n     Test CRC 97F07868\r\n     Copy CRC 97F07868\r\n     Copy OK\r\n\r\nTrack  3\r\n     Filename E:-Temp-3 - Starship Trooper- a. Life Seeker b. Disillusion c. Wurm.wav\r\n\r\n     Peak level 76.0 %\r\n     Track quality 100.0 %\r\n     Test CRC 2AA9273B\r\n     Copy CRC 2AA9273B\r\n     Copy OK\r\n\r\nTrack  4\r\n     Filename E:-Temp-4 - I've Seen All Good People a. Your Move b. All Good People.wav\r\n\r\n     Pre-gap length  0:00:01.84\r\n\r\n     Peak level 81.3 %\r\n     Track quality 100.0 %\r\n     Test CRC 5A20C1D9\r\n     Copy CRC 5A20C1D9\r\n     Copy OK\r\n\r\nTrack  5\r\n     Filename E:-Temp-5 - A Venture.wav\r\n\r\n     Pre-gap length  0:00:02.84\r\n\r\n     Peak level 75.9 %\r\n     Track quality 100.0 %\r\n     Test CRC 5EECAFB1\r\n     Copy CRC 5EECAFB1\r\n     Copy OK\r\n\r\nTrack  6\r\n     Filename E:-Temp-6 - Perpetual Change.wav\r\n\r\n     Pre-gap length  0:00:02.89\r\n\r\n     Peak level 75.9 %\r\n     Track quality 100.0 %\r\n     Test CRC C99F462D\r\n     Copy CRC C99F462D\r\n     Copy OK\r\n\r\nNo errors occured\r\n\r\n\r\nEnd of status report","torrent":{"xt":"urn:btih:796d9b0ed708d7d415cf8df06757dd15534746f6","amp;dn":"Yes+-+The+Yes+Album+%281971%29+%5BFLAC%5D+%28JVC+Japan%29","amp;tr":["udp%3A%2F%2Ftracker.leechers-paradise.org%3A6969","udp%3A%2F%2Fzer0day.ch%3A1337","udp%3A%2F%2Fopen.demonii.com%3A1337","udp%3A%2F%2Ftracker.coppersurfer.tk%3A6969","udp%3A%2F%2Fexodus.desync.com%3A6969"],"infoHash":"796d9b0ed708d7d415cf8df06757dd15534746f6","infoHashBuffer":{"type":"Buffer","data":[121,109,155,14,215,8,215,212,21,207,141,240,103,87,221,21,83,71,70,246]},"announce":[],"urlList":[]}}